<svg width="27" height="24" viewBox="0 0 27 24" fill="none" xmlns="http://www.w3.org/2000/svg">
<rect width="27" height="24" rx="6" fill="#E26930"/>
<path d="M9.86719 16.1193C9.22514 16.1193 8.67827 15.9446 8.22656 15.5952C7.77486 15.2429 7.42969 14.733 7.19105 14.0653C6.95241 13.3949 6.8331 12.5852 6.8331 11.6364C6.8331 10.6932 6.95241 9.88778 7.19105 9.22017C7.43253 8.54972 7.77912 8.03835 8.23082 7.68608C8.68537 7.33097 9.23082 7.15341 9.86719 7.15341C10.5036 7.15341 11.0476 7.33097 11.4993 7.68608C11.9538 8.03835 12.3004 8.54972 12.5391 9.22017C12.7805 9.88778 12.9013 10.6932 12.9013 11.6364C12.9013 12.5852 12.782 13.3949 12.5433 14.0653C12.3047 14.733 11.9595 15.2429 11.5078 15.5952C11.0561 15.9446 10.5092 16.1193 9.86719 16.1193ZM9.86719 15.1818C10.5036 15.1818 10.9979 14.875 11.3501 14.2614C11.7024 13.6477 11.8786 12.7727 11.8786 11.6364C11.8786 10.8807 11.7976 10.2372 11.6357 9.70597C11.4766 9.17472 11.2464 8.76989 10.9453 8.49148C10.647 8.21307 10.2876 8.07386 9.86719 8.07386C9.23651 8.07386 8.74361 8.38494 8.38849 9.0071C8.03338 9.62642 7.85582 10.5028 7.85582 11.6364C7.85582 12.392 7.93537 13.0341 8.09446 13.5625C8.25355 14.0909 8.48224 14.4929 8.78054 14.7685C9.08168 15.044 9.44389 15.1818 9.86719 15.1818ZM14.5206 16V15.233L17.4013 12.0795C17.7393 11.7102 18.0178 11.3892 18.2365 11.1165C18.4553 10.8409 18.6172 10.5824 18.7223 10.3409C18.8303 10.0966 18.8842 9.84091 18.8842 9.57386C18.8842 9.26705 18.8104 9.00142 18.6626 8.77699C18.5178 8.55256 18.3189 8.37926 18.0661 8.2571C17.8132 8.13494 17.5291 8.07386 17.2138 8.07386C16.8786 8.07386 16.5859 8.14347 16.3359 8.28267C16.0888 8.41903 15.897 8.6108 15.7607 8.85795C15.6271 9.10511 15.5604 9.39489 15.5604 9.72727H14.5547C14.5547 9.21591 14.6726 8.76705 14.9084 8.38068C15.1442 7.99432 15.4652 7.69318 15.8714 7.47727C16.2805 7.26136 16.7393 7.15341 17.2479 7.15341C17.7592 7.15341 18.2124 7.26136 18.6072 7.47727C19.0021 7.69318 19.3118 7.98437 19.5362 8.35085C19.7607 8.71733 19.8729 9.125 19.8729 9.57386C19.8729 9.89489 19.8146 10.2088 19.6982 10.5156C19.5845 10.8196 19.3857 11.1591 19.1016 11.5341C18.8203 11.9062 18.4297 12.3608 17.9297 12.8977L15.9695 14.9943V15.0625H20.0263V16H14.5206Z" fill="white"/>
</svg>
