<svg width="16" height="20" viewBox="0 0 16 20" fill="none" xmlns="http://www.w3.org/2000/svg">
<path d="M0.251587 16.875V15.375H2.25159V8.12499C2.25159 6.75832 2.67259 5.55399 3.51459 4.51199C4.35592 3.47065 5.43492 2.79999 6.75159 2.49999V1.79999C6.75159 1.44999 6.87259 1.15399 7.11459 0.911988C7.35592 0.670654 7.65159 0.549988 8.00159 0.549988C8.35159 0.549988 8.64725 0.670654 8.88859 0.911988C9.13059 1.15399 9.25159 1.44999 9.25159 1.79999V2.49999C10.5683 2.79999 11.6476 3.47065 12.4896 4.51199C13.3309 5.55399 13.7516 6.75832 13.7516 8.12499V15.375H15.7516V16.875H0.251587ZM8.00159 19.8C7.50159 19.8 7.07659 19.625 6.72659 19.275C6.37659 18.925 6.20159 18.5 6.20159 18H9.80159C9.80159 18.5 9.62659 18.925 9.27659 19.275C8.92659 19.625 8.50159 19.8 8.00159 19.8ZM3.75159 15.375H12.2516V8.12499C12.2516 6.94165 11.8389 5.93732 11.0136 5.11199C10.1889 4.28732 9.18492 3.87499 8.00159 3.87499C6.81825 3.87499 5.81425 4.28732 4.98959 5.11199C4.16425 5.93732 3.75159 6.94165 3.75159 8.12499V15.375Z" fill="white"/>
</svg>
