<svg width="20" height="20" viewBox="0 0 20 20" fill="none" xmlns="http://www.w3.org/2000/svg">
<path d="M9.99841 15.6258C10.2817 15.6258 10.5194 15.5258 10.7114 15.3258C10.9027 15.1258 10.9984 14.8841 10.9984 14.6008C10.9984 14.3175 10.9027 14.0758 10.7114 13.8758C10.5194 13.6758 10.2817 13.5758 9.99841 13.5758C9.69841 13.5758 9.45275 13.6758 9.26141 13.8758C9.06941 14.0758 8.97341 14.3175 8.97341 14.6008C8.97341 14.8841 9.06941 15.1258 9.26141 15.3258C9.45275 15.5258 9.69841 15.6258 9.99841 15.6258ZM9.27341 12.0258H10.6984C10.6984 11.5425 10.7651 11.1548 10.8984 10.8628C11.0317 10.5715 11.3484 10.1758 11.8484 9.67579C12.2984 9.24246 12.6401 8.83813 12.8734 8.46279C13.1067 8.08813 13.2234 7.65079 13.2234 7.15079C13.2234 6.28413 12.9151 5.60913 12.2984 5.12579C11.6817 4.64246 10.9484 4.40079 10.0984 4.40079C9.26508 4.40079 8.57341 4.62579 8.02341 5.07579C7.47341 5.52579 7.08175 6.05079 6.84841 6.65079L8.14841 7.15079C8.26508 6.83413 8.46941 6.51746 8.76141 6.20079C9.05275 5.88413 9.49008 5.72579 10.0734 5.72579C10.6734 5.72579 11.1151 5.88813 11.3984 6.21279C11.6817 6.53813 11.8234 6.89246 11.8234 7.27579C11.8234 7.60913 11.7234 7.91746 11.5234 8.20079C11.3234 8.48413 11.0734 8.75913 10.7734 9.02579C10.1234 9.60913 9.71108 10.0801 9.53641 10.4388C9.36108 10.7968 9.27341 11.3258 9.27341 12.0258ZM9.99841 19.5008C8.68175 19.5008 7.44441 19.2508 6.28641 18.7508C5.12775 18.2508 4.12341 17.5758 3.27341 16.7258C2.42341 15.8758 1.74841 14.8715 1.24841 13.7128C0.748413 12.5548 0.498413 11.3175 0.498413 10.0008C0.498413 8.68413 0.748413 7.44646 1.24841 6.28779C1.74841 5.12979 2.42341 4.12579 3.27341 3.27579C4.12341 2.42579 5.12775 1.75079 6.28641 1.25079C7.44441 0.750793 8.68175 0.500793 9.99841 0.500793C11.3151 0.500793 12.5527 0.750793 13.7114 1.25079C14.8694 1.75079 15.8734 2.42579 16.7234 3.27579C17.5734 4.12579 18.2484 5.12979 18.7484 6.28779C19.2484 7.44646 19.4984 8.68413 19.4984 10.0008C19.4984 11.3175 19.2484 12.5548 18.7484 13.7128C18.2484 14.8715 17.5734 15.8758 16.7234 16.7258C15.8734 17.5758 14.8694 18.2508 13.7114 18.7508C12.5527 19.2508 11.3151 19.5008 9.99841 19.5008ZM9.99841 18.0008C12.2317 18.0008 14.1234 17.2258 15.6734 15.6758C17.2234 14.1258 17.9984 12.2341 17.9984 10.0008C17.9984 7.76746 17.2234 5.87579 15.6734 4.32579C14.1234 2.77579 12.2317 2.00079 9.99841 2.00079C7.76508 2.00079 5.87341 2.77579 4.32341 4.32579C2.77341 5.87579 1.99841 7.76746 1.99841 10.0008C1.99841 12.2341 2.77341 14.1258 4.32341 15.6758C5.87341 17.2258 7.76508 18.0008 9.99841 18.0008Z" fill="white"/>
</svg>
