<svg width="18" height="19" viewBox="0 0 18 19" fill="none" xmlns="http://www.w3.org/2000/svg">
<path d="M2.67188 18.1105C2.11632 18.1105 1.6441 17.916 1.25521 17.5271C0.86632 17.1382 0.671875 16.666 0.671875 16.1105C0.671875 15.5549 0.86632 15.0827 1.25521 14.6938C1.6441 14.3049 2.11632 14.1105 2.67188 14.1105C3.22743 14.1105 3.69965 14.3049 4.08854 14.6938C4.47743 15.0827 4.67188 15.5549 4.67188 16.1105C4.67188 16.666 4.47743 17.1382 4.08854 17.5271C3.69965 17.916 3.22743 18.1105 2.67188 18.1105ZM11.5608 18.1105C11.0052 18.1105 10.533 17.916 10.1441 17.5271C9.75521 17.1382 9.56076 16.666 9.56076 16.1105C9.56076 15.5549 9.75521 15.0827 10.1441 14.6938C10.533 14.3049 11.0052 14.1105 11.5608 14.1105C12.1163 14.1105 12.5885 14.3049 12.9774 14.6938C13.3663 15.0827 13.5608 15.5549 13.5608 16.1105C13.5608 16.666 13.3663 17.1382 12.9774 17.5271C12.5885 17.916 12.1163 18.1105 11.5608 18.1105ZM7.11632 13.666C6.56076 13.666 6.08854 13.4716 5.69965 13.0827C5.31076 12.6938 5.11632 12.2216 5.11632 11.666C5.11632 11.1105 5.31076 10.6382 5.69965 10.2494C6.08854 9.86046 6.56076 9.66602 7.11632 9.66602C7.67188 9.66602 8.1441 9.86046 8.53299 10.2494C8.92187 10.6382 9.11632 11.1105 9.11632 11.666C9.11632 12.2216 8.92187 12.6938 8.53299 13.0827C8.1441 13.4716 7.67188 13.666 7.11632 13.666ZM16.0052 13.666C15.4497 13.666 14.9774 13.4716 14.5885 13.0827C14.1997 12.6938 14.0052 12.2216 14.0052 11.666C14.0052 11.1105 14.1997 10.6382 14.5885 10.2494C14.9774 9.86046 15.4497 9.66602 16.0052 9.66602C16.5608 9.66602 17.033 9.86046 17.4219 10.2494C17.8108 10.6382 18.0052 11.1105 18.0052 11.666C18.0052 12.2216 17.8108 12.6938 17.4219 13.0827C17.033 13.4716 16.5608 13.666 16.0052 13.666ZM2.67188 9.22157C2.11632 9.22157 1.6441 9.02713 1.25521 8.63824C0.86632 8.24935 0.671875 7.77713 0.671875 7.22157C0.671875 6.66602 0.86632 6.1938 1.25521 5.80491C1.6441 5.41602 2.11632 5.22157 2.67188 5.22157C3.22743 5.22157 3.69965 5.41602 4.08854 5.80491C4.47743 6.1938 4.67188 6.66602 4.67188 7.22157C4.67188 7.77713 4.47743 8.24935 4.08854 8.63824C3.69965 9.02713 3.22743 9.22157 2.67188 9.22157ZM11.5608 9.22157C11.0052 9.22157 10.533 9.02713 10.1441 8.63824C9.75521 8.24935 9.56076 7.77713 9.56076 7.22157C9.56076 6.66602 9.75521 6.1938 10.1441 5.80491C10.533 5.41602 11.0052 5.22157 11.5608 5.22157C12.1163 5.22157 12.5885 5.41602 12.9774 5.80491C13.3663 6.1938 13.5608 6.66602 13.5608 7.22157C13.5608 7.77713 13.3663 8.24935 12.9774 8.63824C12.5885 9.02713 12.1163 9.22157 11.5608 9.22157ZM7.11632 4.77713C6.56076 4.77713 6.08854 4.58269 5.69965 4.1938C5.31076 3.80491 5.11632 3.33269 5.11632 2.77713C5.11632 2.22157 5.31076 1.74935 5.69965 1.36046C6.08854 0.971575 6.56076 0.77713 7.11632 0.77713C7.67188 0.77713 8.1441 0.971575 8.53299 1.36046C8.92187 1.74935 9.11632 2.22157 9.11632 2.77713C9.11632 3.33269 8.92187 3.80491 8.53299 4.1938C8.1441 4.58269 7.67188 4.77713 7.11632 4.77713ZM16.0052 4.77713C15.4497 4.77713 14.9774 4.58269 14.5885 4.1938C14.1997 3.80491 14.0052 3.33269 14.0052 2.77713C14.0052 2.22157 14.1997 1.74935 14.5885 1.36046C14.9774 0.971575 15.4497 0.77713 16.0052 0.77713C16.5608 0.77713 17.033 0.971575 17.4219 1.36046C17.8108 1.74935 18.0052 2.22157 18.0052 2.77713C18.0052 3.33269 17.8108 3.80491 17.4219 4.1938C17.033 4.58269 16.5608 4.77713 16.0052 4.77713Z" fill="white"/>
</svg>
