<svg width="24" height="24" viewBox="0 0 24 24" fill="none" xmlns="http://www.w3.org/2000/svg">
<mask id="mask0_560_61" style="mask-type:alpha" maskUnits="userSpaceOnUse" x="0" y="0" width="24" height="24">
<rect width="24" height="24" fill="#D9D9D9"/>
</mask>
<g mask="url(#mask0_560_61)">
<path d="M11.9946 12.55L3.99457 7.45V17.7C3.99457 17.7833 4.0239 17.8543 4.08257 17.913C4.14057 17.971 4.21123 18 4.29457 18H12.4946C12.4946 18.2667 12.5112 18.5207 12.5446 18.762C12.5779 19.004 12.6279 19.25 12.6946 19.5H4.29457C3.79457 19.5 3.36957 19.325 3.01957 18.975C2.66957 18.625 2.49457 18.2 2.49457 17.7V6.3C2.49457 5.8 2.66957 5.375 3.01957 5.025C3.36957 4.675 3.79457 4.5 4.29457 4.5H19.6946C20.1946 4.5 20.6196 4.675 20.9696 5.025C21.3196 5.375 21.4946 5.8 21.4946 6.3V12.025C21.2779 11.925 21.0406 11.8373 20.7826 11.762C20.5239 11.6873 20.2612 11.6333 19.9946 11.6V7.45L11.9946 12.55ZM11.9946 11L19.8446 6H4.14457L11.9946 11ZM18.9946 22.5C17.7446 22.5 16.6819 22.0627 15.8066 21.188C14.9319 20.3127 14.4946 19.25 14.4946 18C14.4946 16.75 14.9319 15.6873 15.8066 14.812C16.6819 13.9373 17.7446 13.5 18.9946 13.5C20.2446 13.5 21.3072 13.9373 22.1826 14.812C23.0572 15.6873 23.4946 16.75 23.4946 18C23.4946 19.25 23.0572 20.3127 22.1826 21.188C21.3072 22.0627 20.2446 22.5 18.9946 22.5ZM16.3196 18.45H21.6696V17.55H16.3196V18.45ZM3.99457 18V15.8V15.825V6V18Z" fill="white"/>
</g>
</svg>
