<svg width="4" height="16" viewBox="0 0 4 16" fill="none" xmlns="http://www.w3.org/2000/svg">
<path d="M2.00001 15.2692C1.58752 15.2692 1.23441 15.1223 0.940656 14.8286C0.646906 14.5348 0.500031 14.1817 0.500031 13.7692C0.500031 13.3567 0.646906 13.0036 0.940656 12.7099C1.23441 12.4161 1.58752 12.2693 2.00001 12.2693C2.41249 12.2693 2.76561 12.4161 3.05936 12.7099C3.35311 13.0036 3.49998 13.3567 3.49998 13.7692C3.49998 14.1817 3.35311 14.5348 3.05936 14.8286C2.76561 15.1223 2.41249 15.2692 2.00001 15.2692ZM2.00001 9.49999C1.58752 9.49999 1.23441 9.35311 0.940656 9.05936C0.646906 8.76561 0.500031 8.41249 0.500031 8.00001C0.500031 7.58753 0.646906 7.23441 0.940656 6.94066C1.23441 6.64691 1.58752 6.50003 2.00001 6.50003C2.41249 6.50003 2.76561 6.64691 3.05936 6.94066C3.35311 7.23441 3.49998 7.58753 3.49998 8.00001C3.49998 8.41249 3.35311 8.76561 3.05936 9.05936C2.76561 9.35311 2.41249 9.49999 2.00001 9.49999ZM2.00001 3.73076C1.58752 3.73076 1.23441 3.58389 0.940656 3.29014C0.646906 2.9964 0.500031 2.64328 0.500031 2.23078C0.500031 1.8183 0.646906 1.46518 0.940656 1.17143C1.23441 0.877701 1.58752 0.730835 2.00001 0.730835C2.41249 0.730835 2.76561 0.877701 3.05936 1.17143C3.35311 1.46518 3.49998 1.8183 3.49998 2.23078C3.49998 2.64328 3.35311 2.9964 3.05936 3.29014C2.76561 3.58389 2.41249 3.73076 2.00001 3.73076Z" fill="white"/>
</svg>
